<svg width="106" height="106" viewBox="0 0 106 106" fill="none" 
    xmlns="http://www.w3.org/2000/svg">
    <g clipPath="url(#clip0)">
        <circle cx="53" cy="53" r="53" fill="black" />
        <path opacity="0.12" d="M35.0182 102.856C41.5654 105.218 48.5137 106.266 55.4662 105.943C62.4187 105.619 69.2393 103.929 75.5387 100.969C81.838 98.0089 87.4927 93.8373 92.1799 88.6922C96.867 83.547 100.495 77.529 102.856 70.9817C105.218 64.4345 106.266 57.4863 105.943 50.5337C105.619 43.5812 103.929 36.7606 100.969 30.4612C98.0089 24.1619 93.8373 18.5072 88.6921 13.82C83.5469 9.13287 77.5289 5.50503 70.9816 3.14363L52.9999 53L35.0182 102.856Z" fill="white" />
        <path d="M47 70L58.5 37.5" stroke="white" strokeWidth="1.5" />
        <path d="M31.826 59.492H36.16V52.386H32.376V49.9H38.8V59.492H42.298V62H31.826V59.492ZM35.368 46.622C35.368 46.1967 35.5073 45.852 35.786 45.588C36.0793 45.3093 36.4607 45.17 36.93 45.17H37.502C37.9713 45.17 38.3453 45.3093 38.624 45.588C38.9173 45.852 39.064 46.1967 39.064 46.622C39.064 47.062 38.9173 47.414 38.624 47.678C38.3307 47.942 37.9493 48.074 37.48 48.074H36.93C36.4607 48.074 36.0793 47.942 35.786 47.678C35.5073 47.414 35.368 47.062 35.368 46.622Z" fill="white" />
        <path d="M60.738 49.9H70.396V52.496L63.752 59.712C63.928 59.6973 64.1113 59.6753 64.302 59.646C64.4633 59.6313 64.632 59.624 64.808 59.624C64.9987 59.6093 65.182 59.602 65.358 59.602H70.638V62H60.562V59.404L67.228 52.21C67.0373 52.2247 66.8467 52.2393 66.656 52.254C66.4947 52.2687 66.3113 52.2833 66.106 52.298C65.9153 52.298 65.732 52.298 65.556 52.298H60.738V49.9Z" fill="white" />
    </g>
    <defs>
        <clipPath id="clip0">
            <path d="M0 0H106V106H0V0Z" fill="white" />
        </clipPath>
    </defs>
</svg>